# xmcd
#
# Track frame offsets: 
#        150
#        42842
#        93627
#        126877
#        167122
#        184462
#        195972
#
# Disc length: 2791 seconds
#
# Revision: 5
# Processed by: cddbd v1.5.2PL0 Copyright (c) Steve Scherf et al.
# Submitted via: ExactAudioCopy v0.99pb5
#
DISCID=5c0ae507
DTITLE=B.B. King - Linve "Now Appearing" At Ole Miss [CD2]
DYEAR=1980
DGENRE=Blues
TTITLE0=When I"m Wrong
TTITLE1=The Thrill Is Gone
TTITLE2=Never Make A Move To Soon
TTITLE3=Three O' Clock In The Morning
TTITLE4=Rock Me Baby
TTITLE5=Guess Who
TTITLE6=I Just Can't Leave Your Love Alone
EXTD=
EXTT0=
EXTT1=
EXTT2=
EXTT3=
EXTT4=
EXTT5=
EXTT6=
PLAYORDER=
